<?xml version="1.0" standalone="no"?>
<!DOCTYPE svg PUBLIC "-//W3C//DTD SVG 20010904//EN"
 "http://www.w3.org/TR/2001/REC-SVG-20010904/DTD/svg10.dtd">
<svg version="1.0" xmlns="http://www.w3.org/2000/svg"
 width="800.000000pt" height="500.000000pt" viewBox="0 0 800.000000 500.000000"
 preserveAspectRatio="xMidYMid meet">

<g transform="translate(0.000000,500.000000) scale(0.100000,-0.100000)"
fill="#FF0000" stroke="none">
<path d="M3852 4633 c-22 -4 -23 -9 -21 -75 1 -38 6 -91 10 -116 4 -26 13
-146 19 -267 15 -308 28 -552 36 -677 7 -111 -2 -139 -23 -70 -6 20 -35 100
-63 177 -28 77 -69 190 -90 250 -21 61 -64 180 -95 265 -31 85 -78 217 -104
293 -27 76 -52 142 -57 147 -5 5 -46 -7 -94 -27 -92 -38 -333 -144 -338 -148
-1 -1 13 -33 32 -71 19 -38 74 -150 122 -249 47 -99 126 -261 174 -360 166
-341 211 -437 207 -441 -2 -3 -39 35 -82 83 -43 49 -90 100 -104 115 -14 14
-57 61 -96 104 -38 43 -83 91 -99 108 -107 115 -418 457 -441 484 l-28 33
-121 -128 c-67 -70 -141 -149 -164 -175 l-43 -46 53 -50 c29 -27 159 -144 289
-259 410 -364 589 -527 584 -532 -3 -2 -47 15 -97 39 -185 86 -275 128 -363
170 -49 23 -209 98 -355 167 -146 68 -277 130 -293 139 -25 14 -28 14 -33 -3
-4 -10 -24 -60 -45 -110 -22 -51 -39 -95 -39 -98 0 -3 -18 -51 -40 -107 -22
-55 -39 -102 -37 -104 3 -4 239 -88 347 -124 47 -16 220 -76 385 -135 165 -58
330 -115 368 -127 37 -12 67 -25 67 -31 0 -5 -41 -7 -102 -3 -156 9 -439 24
-673 36 -115 6 -270 14 -342 18 l-133 7 0 -227 0 -228 2140 0 2140 0 0 228 0
227 -122 -7 c-68 -3 -220 -11 -338 -18 -118 -6 -285 -15 -370 -20 -305 -18
-425 -22 -417 -14 4 4 31 16 60 25 29 10 129 45 222 79 94 34 226 81 295 105
69 24 190 67 270 95 80 28 184 65 232 81 l87 30 -46 107 c-25 59 -62 148 -83
197 -21 50 -44 102 -52 116 l-13 26 -544 -269 c-298 -148 -546 -267 -549 -263
-4 4 7 18 23 32 35 30 171 151 196 174 9 9 166 153 348 318 182 166 331 307
331 312 0 6 -73 87 -162 180 l-163 169 -45 -48 c-25 -26 -72 -79 -105 -117
-33 -38 -109 -123 -169 -189 -59 -67 -199 -221 -310 -344 -110 -123 -202 -219
-203 -215 -2 5 114 256 257 557 144 302 260 550 258 551 -2 2 -46 21 -98 43
-52 22 -149 63 -215 91 -65 28 -122 47 -126 43 -4 -4 -37 -97 -75 -207 -37
-110 -92 -270 -121 -355 -30 -85 -74 -213 -98 -285 -24 -71 -57 -170 -74 -219
-17 -49 -33 -91 -37 -95 -4 -3 -4 55 0 129 16 328 37 720 46 899 6 106 8 196
5 200 -8 7 -420 11 -453 4z"/>
<path d="M2383 2118 c-24 -71 -25 -78 -9 -78 9 0 16 -3 16 -7 0 -5 -21 -66
-46 -138 -24 -71 -56 -166 -70 -210 -30 -93 -38 -105 -69 -105 -17 0 -24 -7
-29 -31 -3 -17 -6 -36 -6 -41 0 -5 39 -7 87 -6 l87 3 10 33 c7 26 6 36 -4 42
-12 7 -7 32 26 132 l40 123 36 3 c27 2 37 -1 41 -15 6 -19 61 -158 103 -260
l26 -63 343 0 344 0 7 23 c3 12 29 86 56 165 l50 142 43 0 c71 0 72 -9 22
-174 -24 -80 -42 -148 -39 -151 3 -3 88 -5 189 -5 l183 0 0 -34 c0 -72 74 -66
-807 -66 l-795 0 32 -40 32 -40 793 0 c624 0 796 3 802 13 4 6 19 45 33 85
l25 73 665 0 c366 -1 675 2 687 5 17 5 28 24 49 88 14 44 33 95 40 111 7 17
20 48 27 70 13 38 16 40 59 43 77 5 79 -7 27 -164 -25 -74 -43 -136 -41 -139
3 -3 90 -5 194 -5 l188 0 -6 -27 c-4 -16 -11 -38 -15 -50 l-9 -23 -760 0 -760
0 -10 -26 c-22 -57 -80 -54 804 -54 l814 0 32 92 c97 277 129 369 149 422 11
33 21 61 21 64 0 2 -62 2 -137 0 -195 -4 -195 -4 -253 -178 l-45 -135 -52 -3
c-39 -2 -53 1 -53 10 0 7 16 58 36 113 37 105 46 171 23 186 -8 5 -68 8 -133
7 l-120 -3 -51 -146 c-29 -80 -55 -151 -59 -157 -4 -7 -30 -12 -57 -12 -58 0
-57 -4 -12 105 13 33 34 89 46 123 21 63 21 64 2 78 -22 16 -215 20 -244 4
-10 -5 -29 -35 -41 -67 -13 -32 -38 -89 -55 -128 -18 -38 -35 -78 -38 -87 -5
-14 -18 -18 -57 -18 -27 0 -50 2 -50 4 0 2 16 46 36 97 114 302 144 384 144
398 0 9 -7 25 -16 36 -14 19 -28 20 -219 23 l-204 3 -20 -47 c-26 -57 -25 -54
-1 -54 30 0 33 -19 12 -80 -18 -51 -21 -55 -54 -58 -32 -3 -36 -7 -50 -52
l-16 -50 29 0 c16 0 29 -3 29 -7 0 -4 -16 -53 -36 -110 l-37 -103 -178 0 c-99
0 -179 3 -179 6 0 13 60 213 75 247 8 20 15 39 15 42 0 3 -61 5 -136 5 -180 0
-189 -5 -234 -132 -18 -51 -41 -110 -52 -130 -17 -34 -22 -38 -58 -38 -44 0
-46 3 -26 41 28 54 67 189 64 221 l-3 33 -141 3 -140 3 -38 -108 c-76 -217
-62 -193 -117 -193 -40 0 -49 3 -48 18 0 9 24 76 53 147 l52 130 -128 3 c-161
3 -178 -4 -218 -91 -15 -34 -38 -95 -51 -135 l-23 -73 -74 3 -74 3 -40 110
c-53 147 -53 141 8 137 28 -2 69 1 90 7 43 12 97 61 113 103 14 38 25 142 17
172 l-6 26 -233 0 -233 0 -11 -32z m356 -87 c24 -24 18 -54 -17 -81 -21 -17
-40 -20 -143 -20 -66 0 -119 2 -119 4 0 12 32 91 41 103 8 9 41 13 115 13 89
0 107 -3 123 -19z m2035 3 c9 -8 16 -22 16 -31 0 -17 -74 -255 -90 -288 -5
-11 -19 -44 -31 -72 l-21 -53 -99 0 c-66 0 -99 4 -99 11 0 18 52 183 62 196 5
6 19 13 30 15 15 2 25 16 34 48 8 25 14 46 14 48 0 1 -9 2 -20 2 -11 0 -20 1
-20 3 0 9 44 115 52 125 16 19 152 16 172 -4z m-1654 -234 c0 -11 -16 -63 -36
-115 l-37 -95 -58 0 c-37 0 -59 4 -59 11 0 6 11 49 26 95 30 99 54 124 120
124 37 0 44 -3 44 -20z m820 10 c0 -6 -16 -57 -36 -115 l-36 -105 -65 0 c-48
0 -64 3 -61 13 3 6 17 49 32 94 33 98 57 123 122 123 24 0 44 -5 44 -10z
m1998 -2 c-2 -7 -19 -59 -38 -115 l-34 -103 -63 0 c-35 0 -63 3 -63 7 0 4 12
45 27 91 36 111 56 132 123 132 36 0 50 -4 48 -12z m-819 -12 c9 -10 4 -35
-22 -107 l-33 -94 -62 -3 c-47 -2 -62 0 -62 11 0 26 60 191 73 199 20 13 94 9
106 -6z"/>
<path d="M5067 1973 c-15 -17 -12 -18 49 -18 66 0 78 7 45 25 -30 16 -76 12
-94 -7z"/>
<path d="M2895 1450 c-4 -6 18 -10 60 -10 42 0 64 4 60 10 -3 6 -30 10 -60 10
-30 0 -57 -4 -60 -10z"/>
<path d="M2380 1174 c0 -11 91 -135 147 -202 169 -201 463 -384 791 -492 176
-57 286 -82 492 -110 246 -33 437 -25 715 31 271 55 585 201 815 380 45 35 97
76 115 90 65 50 253 249 276 291 9 17 -61 18 -1671 18 -924 0 -1680 -3 -1680
-6z"/>
</g>
</svg>
